<?xml version="1.0" encoding="utf-8" ?>
<svg baseProfile="tiny" height="240" version="1.2" width="600" xmlns="http://www.w3.org/2000/svg" xmlns:ev="http://www.w3.org/2001/xml-events" xmlns:xlink="http://www.w3.org/1999/xlink"><defs /><rect fill="#151515" height="240" width="600" x="0" y="0" /><text fill="#FFFFFF" font-family="Arial" font-size="50px" x="45" y="70.0">Most Used Languages</text><rect fill="#3572A5" height="25" rx="10" ry="50" width="345.6993" x="45" y="105" /><rect fill="#3A4E3A" height="25" width="119.4726" x="383.6993" y="105" /><rect fill="#E91E63" height="25" width="22.1554" x="500.1719" y="105" /><rect fill="#b2b7f8" height="25" width="13.3047" x="519.3273" y="105" /><rect fill="#427819" height="25" rx="10" ry="10" width="16.2759" x="537.7241" y="105" /><rect fill="#FF9800" height="25" width="11.0921" x="531.632" y="105" /><circle cx="52" cy="165" fill="#3572A5" r="7" /><text fill="#FFFFFF" font-family="Arial" font-size="17px" x="65" y="170">Python 67.78%</text><circle cx="52" cy="195" fill="#3A4E3A" r="7" /><text fill="#FFFFFF" font-family="Arial" font-size="17px" x="65" y="200">Cuda 23.03%</text><circle cx="52" cy="225" fill="#E91E63" r="7" /><text fill="#FFFFFF" font-family="Arial" font-size="17px" x="65" y="230">C/C++ 3.95%</text><circle cx="352" cy="165" fill="#b2b7f8" r="7" /><text fill="#FFFFFF" font-family="Arial" font-size="17px" x="365" y="170">Verilog 2.22%</text><circle cx="352" cy="195" fill="#FF9800" r="7" /><text fill="#FFFFFF" font-family="Arial" font-size="17px" x="365" y="200">Bash 1.78%</text><circle cx="352" cy="225" fill="#427819" r="7" /><text fill="#FFFFFF" font-family="Arial" font-size="17px" x="365" y="230">Makefile 1.23%</text></svg>